<svg width="370" height="300" viewBox="0 0 370 300" fill="none" xmlns="http://www.w3.org/2000/svg">
<path d="M89 106.4C101.933 106.4 112 110.733 119.2 119.4C126.533 128.067 130.2 139.8 130.2 154.6V220H86V160.2C86 154.867 84.5333 150.667 81.6 147.6C78.8 144.4 75 142.8 70.2 142.8C65.2667 142.8 61.4 144.4 58.6 147.6C55.8 150.667 54.4 154.867 54.4 160.2V220H10V107.2H54.4V124.4C57.8667 119.067 62.4667 114.733 68.2 111.4C74.0667 108.067 81 106.4 89 106.4ZM268.853 107.2V220H224.453V202.8C220.986 208.133 216.32 212.467 210.453 215.8C204.72 219.133 197.853 220.8 189.853 220.8C176.92 220.8 166.786 216.467 159.453 207.8C152.253 199.133 148.653 187.4 148.653 172.6V107.2H192.853V167C192.853 172.333 194.253 176.6 197.053 179.8C199.986 182.867 203.853 184.4 208.653 184.4C213.586 184.4 217.453 182.867 220.253 179.8C223.053 176.6 224.453 172.333 224.453 167V107.2H268.853Z" fill="url(#paint0_linear_206_144)"/>
<path d="M119.2 119.4L118.431 120.039L118.437 120.046L119.2 119.4ZM130.2 220V221H131.2V220H130.2ZM86 220H85V221H86V220ZM81.6 147.6L80.8474 148.259L80.862 148.275L80.8774 148.291L81.6 147.6ZM58.6 147.6L59.3385 148.274L59.3456 148.266L59.3526 148.259L58.6 147.6ZM54.4 220V221H55.4V220H54.4ZM10 220H9V221H10V220ZM10 107.2V106.2H9V107.2H10ZM54.4 107.2H55.4V106.2H54.4V107.2ZM54.4 124.4H53.4V127.773L55.2384 124.945L54.4 124.4ZM68.2 111.4L67.706 110.53L67.6974 110.535L68.2 111.4ZM89 107.4C101.685 107.4 111.45 111.636 118.431 120.039L119.969 118.761C112.55 109.83 102.181 105.4 89 105.4V107.4ZM118.437 120.046C125.576 128.483 129.2 139.964 129.2 154.6H131.2C131.2 139.636 127.491 127.65 119.963 118.754L118.437 120.046ZM129.2 154.6V220H131.2V154.6H129.2ZM130.2 219H86V221H130.2V219ZM87 220V160.2H85V220H87ZM87 160.2C87 154.678 85.4767 150.206 82.3226 146.909L80.8774 148.291C83.59 151.127 85 155.055 85 160.2H87ZM82.3526 146.941C79.337 143.495 75.2469 141.8 70.2 141.8V143.8C74.7531 143.8 78.263 145.305 80.8474 148.259L82.3526 146.941ZM70.2 141.8C65.0294 141.8 60.8685 143.489 57.8474 146.941L59.3526 148.259C61.9315 145.311 65.504 143.8 70.2 143.8V141.8ZM57.8615 146.926C54.8497 150.224 53.4 154.69 53.4 160.2H55.4C55.4 155.043 56.7503 151.109 59.3385 148.274L57.8615 146.926ZM53.4 160.2V220H55.4V160.2H53.4ZM54.4 219H10V221H54.4V219ZM11 220V107.2H9V220H11ZM10 108.2H54.4V106.2H10V108.2ZM53.4 107.2V124.4H55.4V107.2H53.4ZM55.2384 124.945C58.6161 119.749 63.0988 115.523 68.7026 112.264L67.6974 110.535C61.8346 113.944 57.1173 118.385 53.5616 123.855L55.2384 124.945ZM68.694 112.269C74.3843 109.036 81.1409 107.4 89 107.4V105.4C80.8591 105.4 73.749 107.097 67.706 110.531L68.694 112.269ZM268.853 107.2H269.853V106.2H268.853V107.2ZM268.853 220V221H269.853V220H268.853ZM224.453 220H223.453V221H224.453V220ZM224.453 202.8H225.453V199.427L223.615 202.255L224.453 202.8ZM210.453 215.8L209.959 214.931L209.951 214.935L210.453 215.8ZM159.453 207.8L158.684 208.439L158.69 208.446L159.453 207.8ZM148.653 107.2V106.2H147.653V107.2H148.653ZM192.853 107.2H193.853V106.2H192.853V107.2ZM197.053 179.8L196.301 180.459L196.315 180.475L196.33 180.491L197.053 179.8ZM220.253 179.8L220.992 180.474L220.999 180.466L221.006 180.459L220.253 179.8ZM224.453 107.2V106.2H223.453V107.2H224.453ZM267.853 107.2V220H269.853V107.2H267.853ZM268.853 219H224.453V221H268.853V219ZM225.453 220V202.8H223.453V220H225.453ZM223.615 202.255C220.241 207.446 215.695 211.671 209.959 214.931L210.947 216.669C216.944 213.262 221.732 208.821 225.292 203.345L223.615 202.255ZM209.951 214.935C204.398 218.163 197.713 219.8 189.853 219.8V221.8C197.993 221.8 205.041 220.103 210.956 216.665L209.951 214.935ZM189.853 219.8C177.168 219.8 167.332 215.563 160.217 207.154L158.69 208.446C166.241 217.37 176.671 221.8 189.853 221.8V219.8ZM160.222 207.161C153.213 198.724 149.653 187.241 149.653 172.6H147.653C147.653 187.559 151.293 199.543 158.684 208.439L160.222 207.161ZM149.653 172.6V107.2H147.653V172.6H149.653ZM148.653 108.2H192.853V106.2H148.653V108.2ZM191.853 107.2V167H193.853V107.2H191.853ZM191.853 167C191.853 172.512 193.304 177.033 196.301 180.459L197.806 179.141C195.203 176.167 193.853 172.155 193.853 167H191.853ZM196.33 180.491C199.478 183.782 203.619 185.4 208.653 185.4V183.4C204.087 183.4 200.495 181.952 197.776 179.109L196.33 180.491ZM208.653 185.4C213.81 185.4 217.967 183.787 220.992 180.474L219.515 179.126C216.94 181.946 213.363 183.4 208.653 183.4V185.4ZM221.006 180.459C224.003 177.033 225.453 172.512 225.453 167H223.453C223.453 172.155 222.104 176.167 219.501 179.141L221.006 180.459ZM225.453 167V107.2H223.453V167H225.453ZM224.453 108.2H268.853V106.2H224.453V108.2Z" fill="black"/>
<path d="M342.73 118.515C336.35 118.515 331.235 116.81 327.385 113.4C323.535 109.99 321.61 105.7 321.61 100.53C321.61 95.25 323.535 90.905 327.385 87.495C331.235 83.975 336.35 82.215 342.73 82.215C349 82.215 354.06 83.975 357.91 87.495C361.76 90.905 363.685 95.25 363.685 100.53C363.685 105.7 361.76 109.99 357.91 113.4C354.06 116.81 349 118.515 342.73 118.515ZM360.88 125.94V219H324.25V125.94H360.88Z" fill="url(#paint1_linear_206_144)"/>
<path d="M327.385 113.4L328.048 112.651L328.048 112.651L327.385 113.4ZM327.385 87.495L328.048 88.2436L328.054 88.2383L328.06 88.233L327.385 87.495ZM357.91 87.495L357.235 88.233L357.241 88.2383L357.247 88.2436L357.91 87.495ZM357.91 113.4L357.247 112.651L357.247 112.651L357.91 113.4ZM360.88 125.94H361.88V124.94H360.88V125.94ZM360.88 219V220H361.88V219H360.88ZM324.25 219H323.25V220H324.25V219ZM324.25 125.94V124.94H323.25V125.94H324.25ZM342.73 117.515C336.533 117.515 331.674 115.863 328.048 112.651L326.722 114.149C330.796 117.757 336.167 119.515 342.73 119.515V117.515ZM328.048 112.651C324.414 109.432 322.61 105.415 322.61 100.53H320.61C320.61 105.985 322.656 110.548 326.722 114.149L328.048 112.651ZM322.61 100.53C322.61 95.5275 324.419 91.4581 328.048 88.2436L326.722 86.7464C322.651 90.3519 320.61 94.9724 320.61 100.53H322.61ZM328.06 88.233C331.686 84.9172 336.541 83.215 342.73 83.215V81.215C336.159 81.215 330.784 83.0328 326.71 86.757L328.06 88.233ZM342.73 83.215C348.803 83.215 353.605 84.9143 357.235 88.233L358.585 86.757C354.515 83.0357 349.197 81.215 342.73 81.215V83.215ZM357.247 88.2436C360.876 91.4581 362.685 95.5275 362.685 100.53H364.685C364.685 94.9724 362.644 90.3519 358.573 86.7464L357.247 88.2436ZM362.685 100.53C362.685 105.415 360.881 109.432 357.247 112.651L358.573 114.149C362.639 110.548 364.685 105.985 364.685 100.53H362.685ZM357.247 112.651C353.618 115.866 348.812 117.515 342.73 117.515V119.515C349.188 119.515 354.502 117.754 358.573 114.149L357.247 112.651ZM359.88 125.94V219H361.88V125.94H359.88ZM360.88 218H324.25V220H360.88V218ZM325.25 219V125.94H323.25V219H325.25ZM324.25 126.94H360.88V124.94H324.25V126.94Z" fill="black"/>
<path d="M299.6 219L296.75 215.19L294.62 219H287.3L292.97 210.09L287 202.08H294.44L297.29 205.92L299.45 202.08H306.77L300.92 210.78L307.04 219H299.6Z" fill="url(#paint2_linear_206_144)"/>
<path d="M299.6 219L298.799 219.599L299.099 220H299.6V219ZM296.75 215.19L297.551 214.591L296.628 213.358L295.877 214.702L296.75 215.19ZM294.62 219V220H295.207L295.493 219.488L294.62 219ZM287.3 219L286.456 218.463L285.478 220H287.3V219ZM292.97 210.09L293.814 210.627L294.184 210.045L293.772 209.492L292.97 210.09ZM287 202.08V201.08H285.007L286.198 202.678L287 202.08ZM294.44 202.08L295.243 201.484L294.943 201.08H294.44V202.08ZM297.29 205.92L296.487 206.516L297.406 207.754L298.162 206.41L297.29 205.92ZM299.45 202.08V201.08H298.865L298.578 201.59L299.45 202.08ZM306.77 202.08L307.6 202.638L308.647 201.08H306.77V202.08ZM300.92 210.78L300.09 210.222L299.695 210.809L300.118 211.377L300.92 210.78ZM307.04 219V220H309.031L307.842 218.403L307.04 219ZM300.401 218.401L297.551 214.591L295.949 215.789L298.799 219.599L300.401 218.401ZM295.877 214.702L293.747 218.512L295.493 219.488L297.623 215.678L295.877 214.702ZM294.62 218H287.3V220H294.62V218ZM288.144 219.537L293.814 210.627L292.126 209.553L286.456 218.463L288.144 219.537ZM293.772 209.492L287.802 201.482L286.198 202.678L292.168 210.688L293.772 209.492ZM287 203.08H294.44V201.08H287V203.08ZM293.637 202.676L296.487 206.516L298.093 205.324L295.243 201.484L293.637 202.676ZM298.162 206.41L300.322 202.57L298.578 201.59L296.418 205.43L298.162 206.41ZM299.45 203.08H306.77V201.08H299.45V203.08ZM305.94 201.522L300.09 210.222L301.75 211.338L307.6 202.638L305.94 201.522ZM300.118 211.377L306.238 219.597L307.842 218.403L301.722 210.183L300.118 211.377ZM307.04 218H299.6V220H307.04V218Z" fill="black"/>
<defs>
<linearGradient id="paint0_linear_206_144" x1="12.8189" y1="112.5" x2="285.841" y2="177.279" gradientUnits="userSpaceOnUse">
<stop stop-color="#87FFFF"/>
<stop offset="1" stop-color="#BC87FF"/>
</linearGradient>
<linearGradient id="paint1_linear_206_144" x1="318.481" y1="130" x2="374.127" y2="133.091" gradientUnits="userSpaceOnUse">
<stop stop-color="#87FFFF"/>
<stop offset="1" stop-color="#BC87FF"/>
</linearGradient>
<linearGradient id="paint2_linear_206_144" x1="287.965" y1="202.875" x2="309.368" y2="205.423" gradientUnits="userSpaceOnUse">
<stop stop-color="#87FFFF"/>
<stop offset="1" stop-color="#BC87FF"/>
</linearGradient>
</defs>
</svg>
